<?xml version="1.0" encoding="UTF-8" standalone="no"?><svg xmlns="http://www.w3.org/2000/svg" xmlns:xlink="http://www.w3.org/1999/xlink" contentStyleType="text/css" height="2201px" preserveAspectRatio="none" style="width:987px;height:2201px;background:#FFFFFF;" version="1.1" viewBox="0 0 987 2201" width="987px" zoomAndPan="magnify"><defs/><g><rect fill="none" height="169.1094" style="stroke:#000000;stroke-width:1.5;" width="907" x="10" y="1556.2031"/><line style="stroke:#181818;stroke-width:0.5;stroke-dasharray:5.0,5.0;" x1="37" x2="37" y1="86.2188" y2="2104.5313"/><line style="stroke:#181818;stroke-width:0.5;stroke-dasharray:5.0,5.0;" x1="128" x2="128" y1="86.2188" y2="2104.5313"/><line style="stroke:#181818;stroke-width:0.5;stroke-dasharray:5.0,5.0;" x1="253.5" x2="253.5" y1="86.2188" y2="2104.5313"/><line style="stroke:#181818;stroke-width:0.5;stroke-dasharray:5.0,5.0;" x1="318.5" x2="318.5" y1="86.2188" y2="2104.5313"/><line style="stroke:#181818;stroke-width:0.5;stroke-dasharray:5.0,5.0;" x1="433" x2="433" y1="86.2188" y2="2104.5313"/><line style="stroke:#181818;stroke-width:0.5;stroke-dasharray:5.0,5.0;" x1="505" x2="505" y1="86.2188" y2="2104.5313"/><line style="stroke:#181818;stroke-width:0.5;stroke-dasharray:5.0,5.0;" x1="609.5" x2="609.5" y1="86.2188" y2="2104.5313"/><line style="stroke:#181818;stroke-width:0.5;stroke-dasharray:5.0,5.0;" x1="707.5" x2="707.5" y1="86.2188" y2="2104.5313"/><line style="stroke:#181818;stroke-width:0.5;stroke-dasharray:5.0,5.0;" x1="791.5" x2="791.5" y1="86.2188" y2="2104.5313"/><line style="stroke:#181818;stroke-width:0.5;stroke-dasharray:5.0,5.0;" x1="889" x2="889" y1="86.2188" y2="2104.5313"/><line style="stroke:#181818;stroke-width:0.5;stroke-dasharray:5.0,5.0;" x1="951" x2="951" y1="86.2188" y2="2104.5313"/><text fill="#000000" font-family="sans-serif" font-size="14" lengthAdjust="spacing" textLength="29" x="20" y="83.1426">User</text><ellipse cx="37.5" cy="17.1094" fill="#E2E2F0" rx="8" ry="8" style="stroke:#181818;stroke-width:0.5;"/><path d="M37.5,25.1094 L37.5,52.1094 M24.5,33.1094 L50.5,33.1094 M37.5,52.1094 L24.5,67.1094 M37.5,52.1094 L50.5,67.1094 " fill="none" style="stroke:#181818;stroke-width:0.5;"/><text fill="#000000" font-family="sans-serif" font-size="14" lengthAdjust="spacing" textLength="29" x="20" y="2118.0645">User</text><ellipse cx="37.5" cy="2129.6406" fill="#E2E2F0" rx="8" ry="8" style="stroke:#181818;stroke-width:0.5;"/><path d="M37.5,2137.6406 L37.5,2164.6406 M24.5,2145.6406 L50.5,2145.6406 M37.5,2164.6406 L24.5,2179.6406 M37.5,2164.6406 L50.5,2179.6406 " fill="none" style="stroke:#181818;stroke-width:0.5;"/><rect fill="#99FF99" height="31.6094" rx="2.5" ry="2.5" style="stroke:#181818;stroke-width:0.5;" width="49" x="104" y="53.6094"/><text fill="#000000" font-family="sans-serif" font-size="14" lengthAdjust="spacing" textLength="35" x="111" y="75.1426">Login</text><rect fill="#99FF99" height="31.6094" rx="2.5" ry="2.5" style="stroke:#181818;stroke-width:0.5;" width="49" x="104" y="2103.5313"/><text fill="#000000" font-family="sans-serif" font-size="14" lengthAdjust="spacing" textLength="35" x="111" y="2125.0645">Login</text><text fill="#000000" font-family="sans-serif" font-size="14" lengthAdjust="spacing" textLength="34" x="233.5" y="65.5332">Local</text><text fill="#000000" font-family="sans-serif" font-size="14" lengthAdjust="spacing" textLength="50" x="225.5" y="83.1426">Storage</text><path d="M235.5,15 C235.5,5 253.5,5 253.5,5 C253.5,5 271.5,5 271.5,15 L271.5,41 C271.5,51 253.5,51 253.5,51 C253.5,51 235.5,51 235.5,41 L235.5,15 " fill="#E2E2F0" style="stroke:#181818;stroke-width:1.5;"/><path d="M235.5,15 C235.5,25 253.5,25 253.5,25 C253.5,25 271.5,25 271.5,15 " fill="none" style="stroke:#181818;stroke-width:1.5;"/><text fill="#000000" font-family="sans-serif" font-size="14" lengthAdjust="spacing" textLength="34" x="233.5" y="2118.0645">Local</text><text fill="#000000" font-family="sans-serif" font-size="14" lengthAdjust="spacing" textLength="50" x="225.5" y="2135.6738">Storage</text><path d="M235.5,2148.75 C235.5,2138.75 253.5,2138.75 253.5,2138.75 C253.5,2138.75 271.5,2138.75 271.5,2148.75 L271.5,2174.75 C271.5,2184.75 253.5,2184.75 253.5,2184.75 C253.5,2184.75 235.5,2184.75 235.5,2174.75 L235.5,2148.75 " fill="#E2E2F0" style="stroke:#181818;stroke-width:1.5;"/><path d="M235.5,2148.75 C235.5,2158.75 253.5,2158.75 253.5,2158.75 C253.5,2158.75 271.5,2158.75 271.5,2148.75 " fill="none" style="stroke:#181818;stroke-width:1.5;"/><rect fill="#99FF99" height="49.2188" rx="2.5" ry="2.5" style="stroke:#181818;stroke-width:0.5;" width="55" x="291.5" y="36"/><text fill="#000000" font-family="sans-serif" font-size="14" lengthAdjust="spacing" textLength="36" x="301" y="57.5332">Metro</text><text fill="#000000" font-family="sans-serif" font-size="14" lengthAdjust="spacing" textLength="41" x="298.5" y="75.1426">Global</text><rect fill="#99FF99" height="49.2188" rx="2.5" ry="2.5" style="stroke:#181818;stroke-width:0.5;" width="55" x="291.5" y="2103.5313"/><text fill="#000000" font-family="sans-serif" font-size="14" lengthAdjust="spacing" textLength="36" x="301" y="2125.0645">Metro</text><text fill="#000000" font-family="sans-serif" font-size="14" lengthAdjust="spacing" textLength="41" x="298.5" y="2142.6738">Global</text><rect fill="#99FF99" height="49.2188" rx="2.5" ry="2.5" style="stroke:#181818;stroke-width:0.5;" width="50" x="408" y="36"/><text fill="#000000" font-family="sans-serif" font-size="14" lengthAdjust="spacing" textLength="36" x="415" y="57.5332">Metro</text><text fill="#000000" font-family="sans-serif" font-size="14" lengthAdjust="spacing" textLength="27" x="419.5" y="75.1426">Map</text><rect fill="#99FF99" height="49.2188" rx="2.5" ry="2.5" style="stroke:#181818;stroke-width:0.5;" width="50" x="408" y="2103.5313"/><text fill="#000000" font-family="sans-serif" font-size="14" lengthAdjust="spacing" textLength="36" x="415" y="2125.0645">Metro</text><text fill="#000000" font-family="sans-serif" font-size="14" lengthAdjust="spacing" textLength="27" x="419.5" y="2142.6738">Map</text><rect fill="#99FF99" height="49.2188" rx="2.5" ry="2.5" style="stroke:#181818;stroke-width:0.5;" width="50" x="480" y="36"/><text fill="#000000" font-family="sans-serif" font-size="14" lengthAdjust="spacing" textLength="36" x="487" y="57.5332">Metro</text><text fill="#000000" font-family="sans-serif" font-size="14" lengthAdjust="spacing" textLength="27" x="491.5" y="75.1426">Line</text><rect fill="#99FF99" height="49.2188" rx="2.5" ry="2.5" style="stroke:#181818;stroke-width:0.5;" width="50" x="480" y="2103.5313"/><text fill="#000000" font-family="sans-serif" font-size="14" lengthAdjust="spacing" textLength="36" x="487" y="2125.0645">Metro</text><text fill="#000000" font-family="sans-serif" font-size="14" lengthAdjust="spacing" textLength="27" x="491.5" y="2142.6738">Line</text><rect fill="#99FF99" height="31.6094" rx="2.5" ry="2.5" style="stroke:#181818;stroke-width:0.5;" width="103" x="558.5" y="53.6094"/><text fill="#000000" font-family="sans-serif" font-size="14" lengthAdjust="spacing" textLength="89" x="565.5" y="75.1426">Neighborhood</text><rect fill="#99FF99" height="31.6094" rx="2.5" ry="2.5" style="stroke:#181818;stroke-width:0.5;" width="103" x="558.5" y="2103.5313"/><text fill="#000000" font-family="sans-serif" font-size="14" lengthAdjust="spacing" textLength="89" x="565.5" y="2125.0645">Neighborhood</text><rect fill="#99FF99" height="49.2188" rx="2.5" ry="2.5" style="stroke:#181818;stroke-width:0.5;" width="73" x="671.5" y="36"/><text fill="#000000" font-family="sans-serif" font-size="14" lengthAdjust="spacing" textLength="33" x="691.5" y="57.5332">From</text><text fill="#000000" font-family="sans-serif" font-size="14" lengthAdjust="spacing" textLength="59" x="678.5" y="75.1426">Template</text><rect fill="#99FF99" height="49.2188" rx="2.5" ry="2.5" style="stroke:#181818;stroke-width:0.5;" width="73" x="671.5" y="2103.5313"/><text fill="#000000" font-family="sans-serif" font-size="14" lengthAdjust="spacing" textLength="33" x="691.5" y="2125.0645">From</text><text fill="#000000" font-family="sans-serif" font-size="14" lengthAdjust="spacing" textLength="59" x="678.5" y="2142.6738">Template</text><rect fill="#99FF99" height="31.6094" rx="2.5" ry="2.5" style="stroke:#181818;stroke-width:0.5;" width="73" x="755.5" y="53.6094"/><text fill="#000000" font-family="sans-serif" font-size="14" lengthAdjust="spacing" textLength="59" x="762.5" y="75.1426">Summary</text><rect fill="#99FF99" height="31.6094" rx="2.5" ry="2.5" style="stroke:#181818;stroke-width:0.5;" width="73" x="755.5" y="2103.5313"/><text fill="#000000" font-family="sans-serif" font-size="14" lengthAdjust="spacing" textLength="59" x="762.5" y="2125.0645">Summary</text><text fill="#000000" font-family="sans-serif" font-size="14" lengthAdjust="spacing" textLength="21" x="875.5" y="83.1426">API</text><path d="M871,32.6094 C871,22.6094 889,22.6094 889,22.6094 C889,22.6094 907,22.6094 907,32.6094 L907,58.6094 C907,68.6094 889,68.6094 889,68.6094 C889,68.6094 871,68.6094 871,58.6094 L871,32.6094 " fill="#E2E2F0" style="stroke:#181818;stroke-width:1.5;"/><path d="M871,32.6094 C871,42.6094 889,42.6094 889,42.6094 C889,42.6094 907,42.6094 907,32.6094 " fill="none" style="stroke:#181818;stroke-width:1.5;"/><text fill="#000000" font-family="sans-serif" font-size="14" lengthAdjust="spacing" textLength="21" x="875.5" y="2118.0645">API</text><path d="M871,2131.1406 C871,2121.1406 889,2121.1406 889,2121.1406 C889,2121.1406 907,2121.1406 907,2131.1406 L907,2157.1406 C907,2167.1406 889,2167.1406 889,2167.1406 C889,2167.1406 871,2167.1406 871,2157.1406 L871,2131.1406 " fill="#E2E2F0" style="stroke:#181818;stroke-width:1.5;"/><path d="M871,2131.1406 C871,2141.1406 889,2141.1406 889,2141.1406 C889,2141.1406 907,2141.1406 907,2131.1406 " fill="none" style="stroke:#181818;stroke-width:1.5;"/><text fill="#000000" font-family="sans-serif" font-size="14" lengthAdjust="spacing" textLength="63" x="917" y="65.5332">MetroMap</text><text fill="#000000" font-family="sans-serif" font-size="14" lengthAdjust="spacing" textLength="47" x="925" y="83.1426">Service</text><path d="M933.5,15 C933.5,5 951.5,5 951.5,5 C951.5,5 969.5,5 969.5,15 L969.5,41 C969.5,51 951.5,51 951.5,51 C951.5,51 933.5,51 933.5,41 L933.5,15 " fill="#E2E2F0" style="stroke:#181818;stroke-width:1.5;"/><path d="M933.5,15 C933.5,25 951.5,25 951.5,25 C951.5,25 969.5,25 969.5,15 " fill="none" style="stroke:#181818;stroke-width:1.5;"/><text fill="#000000" font-family="sans-serif" font-size="14" lengthAdjust="spacing" textLength="63" x="917" y="2118.0645">MetroMap</text><text fill="#000000" font-family="sans-serif" font-size="14" lengthAdjust="spacing" textLength="47" x="925" y="2135.6738">Service</text><path d="M933.5,2148.75 C933.5,2138.75 951.5,2138.75 951.5,2138.75 C951.5,2138.75 969.5,2138.75 969.5,2148.75 L969.5,2174.75 C969.5,2184.75 951.5,2184.75 951.5,2184.75 C951.5,2184.75 933.5,2184.75 933.5,2174.75 L933.5,2148.75 " fill="#E2E2F0" style="stroke:#181818;stroke-width:1.5;"/><path d="M933.5,2148.75 C933.5,2158.75 951.5,2158.75 951.5,2158.75 C951.5,2158.75 969.5,2158.75 969.5,2148.75 " fill="none" style="stroke:#181818;stroke-width:1.5;"/><polygon fill="#181818" points="116.5,114.5703,126.5,118.5703,116.5,122.5703,120.5,118.5703" style="stroke:#181818;stroke-width:1.0;"/><line style="stroke:#181818;stroke-width:1.0;stroke-dasharray:2.0,2.0;" x1="37.5" x2="122.5" y1="118.5703" y2="118.5703"/><text fill="#000000" font-family="sans-serif" font-size="13" lengthAdjust="spacing" textLength="67" x="44.5" y="113.7139">Enter name</text><polygon fill="#181818" points="241.5,144.9219,251.5,148.9219,241.5,152.9219,245.5,148.9219" style="stroke:#181818;stroke-width:1.0;"/><line style="stroke:#181818;stroke-width:1.0;" x1="128.5" x2="247.5" y1="148.9219" y2="148.9219"/><text fill="#000000" font-family="sans-serif" font-size="13" lengthAdjust="spacing" textLength="94" x="135.5" y="144.0654">Store userName</text><polygon fill="#181818" points="241.5,175.2734,251.5,179.2734,241.5,183.2734,245.5,179.2734" style="stroke:#181818;stroke-width:1.0;"/><line style="stroke:#181818;stroke-width:1.0;" x1="128.5" x2="247.5" y1="179.2734" y2="179.2734"/><text fill="#000000" font-family="sans-serif" font-size="13" lengthAdjust="spacing" textLength="85" x="135.5" y="174.417">Store UserKey</text><polygon fill="#181818" points="241.5,205.625,251.5,209.625,241.5,213.625,245.5,209.625" style="stroke:#181818;stroke-width:1.0;"/><line style="stroke:#181818;stroke-width:1.0;" x1="128.5" x2="247.5" y1="209.625" y2="209.625"/><text fill="#000000" font-family="sans-serif" font-size="13" lengthAdjust="spacing" textLength="83" x="135.5" y="204.7686">Results object</text><polygon fill="#181818" points="241.5,235.9766,251.5,239.9766,241.5,243.9766,245.5,239.9766" style="stroke:#181818;stroke-width:1.0;"/><line style="stroke:#181818;stroke-width:1.0;" x1="128.5" x2="247.5" y1="239.9766" y2="239.9766"/><text fill="#000000" font-family="sans-serif" font-size="13" lengthAdjust="spacing" textLength="101" x="135.5" y="235.1201">Current station ID</text><polygon fill="#181818" points="307,266.3281,317,270.3281,307,274.3281,311,270.3281" style="stroke:#181818;stroke-width:1.0;"/><line style="stroke:#181818;stroke-width:1.0;" x1="128.5" x2="313" y1="270.3281" y2="270.3281"/><text fill="#000000" font-family="sans-serif" font-size="13" lengthAdjust="spacing" textLength="50" x="135.5" y="265.4717">/stations</text><polygon fill="#181818" points="421,313.0313,431,317.0313,421,321.0313,425,317.0313" style="stroke:#181818;stroke-width:1.0;"/><line style="stroke:#181818;stroke-width:1.0;" x1="319" x2="427" y1="317.0313" y2="317.0313"/><text fill="#000000" font-family="sans-serif" font-size="13" lengthAdjust="spacing" textLength="90" x="326" y="295.8232">Load MetroMap</text><text fill="#000000" font-family="sans-serif" font-size="13" lengthAdjust="spacing" textLength="64" x="326" y="312.1748">component</text><polygon fill="#181818" points="877,343.3828,887,347.3828,877,351.3828,881,347.3828" style="stroke:#181818;stroke-width:1.0;"/><line style="stroke:#181818;stroke-width:1.0;" x1="433" x2="883" y1="347.3828" y2="347.3828"/><text fill="#000000" font-family="sans-serif" font-size="13" lengthAdjust="spacing" textLength="207" x="440" y="342.5264">GET api/faculties/graduateprograms</text><polygon fill="#181818" points="444,373.7344,434,377.7344,444,381.7344,440,377.7344" style="stroke:#181818;stroke-width:1.0;"/><line style="stroke:#181818;stroke-width:1.0;" x1="438" x2="888" y1="377.7344" y2="377.7344"/><text fill="#000000" font-family="sans-serif" font-size="13" lengthAdjust="spacing" textLength="72" x="450" y="372.8779">[Faculties].n</text><polygon fill="#181818" points="939.5,404.0859,949.5,408.0859,939.5,412.0859,943.5,408.0859" style="stroke:#181818;stroke-width:1.0;"/><line style="stroke:#181818;stroke-width:1.0;" x1="433" x2="945.5" y1="408.0859" y2="408.0859"/><text fill="#000000" font-family="sans-serif" font-size="13" lengthAdjust="spacing" textLength="182" x="440" y="403.2295">Call MetroMapService(faculties)</text><polygon fill="#181818" points="444,434.4375,434,438.4375,444,442.4375,440,438.4375" style="stroke:#181818;stroke-width:1.0;"/><line style="stroke:#181818;stroke-width:1.0;" x1="438" x2="950.5" y1="438.4375" y2="438.4375"/><text fill="#000000" font-family="sans-serif" font-size="13" lengthAdjust="spacing" textLength="189" x="450" y="433.5811">Provide metrostation coordinates</text><line style="stroke:#181818;stroke-width:1.0;" x1="433" x2="475" y1="485.1406" y2="485.1406"/><line style="stroke:#181818;stroke-width:1.0;" x1="475" x2="475" y1="485.1406" y2="498.1406"/><line style="stroke:#181818;stroke-width:1.0;" x1="434" x2="475" y1="498.1406" y2="498.1406"/><polygon fill="#181818" points="444,494.1406,434,498.1406,444,502.1406,440,498.1406" style="stroke:#181818;stroke-width:1.0;"/><text fill="#000000" font-family="sans-serif" font-size="13" lengthAdjust="spacing" textLength="41" x="440" y="463.9326">Render</text><text fill="#000000" font-family="sans-serif" font-size="13" lengthAdjust="spacing" textLength="58" x="440" y="480.2842">metromap</text><polygon fill="#181818" points="493,540.8438,503,544.8438,493,548.8438,497,544.8438" style="stroke:#181818;stroke-width:1.0;"/><line style="stroke:#181818;stroke-width:1.0;" x1="319" x2="499" y1="544.8438" y2="544.8438"/><text fill="#000000" font-family="sans-serif" font-size="13" lengthAdjust="spacing" textLength="89" x="326" y="523.6357">Load MetroLine</text><text fill="#000000" font-family="sans-serif" font-size="13" lengthAdjust="spacing" textLength="64" x="326" y="539.9873">component</text><polygon fill="#181818" points="877,571.1953,887,575.1953,877,579.1953,881,575.1953" style="stroke:#181818;stroke-width:1.0;"/><line style="stroke:#181818;stroke-width:1.0;" x1="505" x2="883" y1="575.1953" y2="575.1953"/><text fill="#000000" font-family="sans-serif" font-size="13" lengthAdjust="spacing" textLength="229" x="512" y="570.3389">GET api/faculties/{id}/graduateprograms</text><polygon fill="#181818" points="516,601.5469,506,605.5469,516,609.5469,512,605.5469" style="stroke:#181818;stroke-width:1.0;"/><line style="stroke:#181818;stroke-width:1.0;" x1="510" x2="888" y1="605.5469" y2="605.5469"/><text fill="#000000" font-family="sans-serif" font-size="13" lengthAdjust="spacing" textLength="72" x="522" y="600.6904">[Faculties].1</text><line style="stroke:#181818;stroke-width:1.0;" x1="505" x2="547" y1="652.25" y2="652.25"/><line style="stroke:#181818;stroke-width:1.0;" x1="547" x2="547" y1="652.25" y2="665.25"/><line style="stroke:#181818;stroke-width:1.0;" x1="506" x2="547" y1="665.25" y2="665.25"/><polygon fill="#181818" points="516,661.25,506,665.25,516,669.25,512,665.25" style="stroke:#181818;stroke-width:1.0;"/><text fill="#000000" font-family="sans-serif" font-size="13" lengthAdjust="spacing" textLength="41" x="512" y="631.042">Render</text><text fill="#000000" font-family="sans-serif" font-size="13" lengthAdjust="spacing" textLength="57" x="512" y="647.3936">MetroLine</text><polygon fill="#181818" points="264.5,724.3047,254.5,728.3047,264.5,732.3047,260.5,728.3047" style="stroke:#181818;stroke-width:1.0;"/><line style="stroke:#181818;stroke-width:1.0;" x1="258.5" x2="318" y1="728.3047" y2="728.3047"/><text fill="#000000" font-family="sans-serif" font-size="13" lengthAdjust="spacing" textLength="31" x="270.5" y="690.7451">Store</text><text fill="#000000" font-family="sans-serif" font-size="13" lengthAdjust="spacing" textLength="26" x="270.5" y="707.0967">start</text><text fill="#000000" font-family="sans-serif" font-size="13" lengthAdjust="spacing" textLength="39" x="270.5" y="723.4482">station</text><polygon fill="#181818" points="421,787.3594,431,791.3594,421,795.3594,425,791.3594" style="stroke:#181818;stroke-width:1.0;"/><line style="stroke:#181818;stroke-width:1.0;" x1="319" x2="427" y1="791.3594" y2="791.3594"/><text fill="#000000" font-family="sans-serif" font-size="13" lengthAdjust="spacing" textLength="50" x="326" y="753.7998">Highlight</text><text fill="#000000" font-family="sans-serif" font-size="13" lengthAdjust="spacing" textLength="40" x="326" y="770.1514">current</text><text fill="#000000" font-family="sans-serif" font-size="13" lengthAdjust="spacing" textLength="39" x="326" y="786.5029">station</text><polygon fill="#181818" points="493,850.4141,503,854.4141,493,858.4141,497,854.4141" style="stroke:#181818;stroke-width:1.0;"/><line style="stroke:#181818;stroke-width:1.0;" x1="319" x2="499" y1="854.4141" y2="854.4141"/><text fill="#000000" font-family="sans-serif" font-size="13" lengthAdjust="spacing" textLength="50" x="326" y="816.8545">Highlight</text><text fill="#000000" font-family="sans-serif" font-size="13" lengthAdjust="spacing" textLength="40" x="326" y="833.2061">current</text><text fill="#000000" font-family="sans-serif" font-size="13" lengthAdjust="spacing" textLength="39" x="326" y="849.5576">station</text><polygon fill="#181818" points="493,880.7656,503,884.7656,493,888.7656,497,884.7656" style="stroke:#181818;stroke-width:1.0;"/><line style="stroke:#181818;stroke-width:1.0;stroke-dasharray:2.0,2.0;" x1="37.5" x2="499" y1="884.7656" y2="884.7656"/><text fill="#000000" font-family="sans-serif" font-size="13" lengthAdjust="spacing" textLength="240" x="44.5" y="879.9092">Clicks on station in MetroLine component</text><polygon fill="#181818" points="264.5,927.4688,254.5,931.4688,264.5,935.4688,260.5,931.4688" style="stroke:#181818;stroke-width:1.0;"/><line style="stroke:#181818;stroke-width:1.0;" x1="258.5" x2="504" y1="931.4688" y2="931.4688"/><text fill="#000000" font-family="sans-serif" font-size="13" lengthAdjust="spacing" textLength="85" x="270.5" y="910.2607">Update current</text><text fill="#000000" font-family="sans-serif" font-size="13" lengthAdjust="spacing" textLength="39" x="270.5" y="926.6123">station</text><polygon fill="#181818" points="330,974.1719,320,978.1719,330,982.1719,326,978.1719" style="stroke:#181818;stroke-width:1.0;"/><line style="stroke:#181818;stroke-width:1.0;" x1="324" x2="504" y1="978.1719" y2="978.1719"/><text fill="#000000" font-family="sans-serif" font-size="13" lengthAdjust="spacing" textLength="85" x="336" y="956.9639">Update current</text><text fill="#000000" font-family="sans-serif" font-size="13" lengthAdjust="spacing" textLength="39" x="336" y="973.3154">station</text><polygon fill="#181818" points="421,1020.875,431,1024.875,421,1028.875,425,1024.875" style="stroke:#181818;stroke-width:1.0;"/><line style="stroke:#181818;stroke-width:1.0;" x1="319" x2="427" y1="1024.875" y2="1024.875"/><text fill="#000000" font-family="sans-serif" font-size="13" lengthAdjust="spacing" textLength="85" x="326" y="1003.667">Update current</text><text fill="#000000" font-family="sans-serif" font-size="13" lengthAdjust="spacing" textLength="39" x="326" y="1020.0186">station</text><line style="stroke:#181818;stroke-width:1.0;" x1="505" x2="547" y1="1087.9297" y2="1087.9297"/><line style="stroke:#181818;stroke-width:1.0;" x1="547" x2="547" y1="1087.9297" y2="1100.9297"/><line style="stroke:#181818;stroke-width:1.0;" x1="506" x2="547" y1="1100.9297" y2="1100.9297"/><polygon fill="#181818" points="516,1096.9297,506,1100.9297,516,1104.9297,512,1100.9297" style="stroke:#181818;stroke-width:1.0;"/><text fill="#000000" font-family="sans-serif" font-size="13" lengthAdjust="spacing" textLength="71" x="512" y="1050.3701">Show popup</text><text fill="#000000" font-family="sans-serif" font-size="13" lengthAdjust="spacing" textLength="44" x="512" y="1066.7217">to enter</text><text fill="#000000" font-family="sans-serif" font-size="13" lengthAdjust="spacing" textLength="77" x="512" y="1083.0732">neighborhood</text><polygon fill="#181818" points="493,1127.2813,503,1131.2813,493,1135.2813,497,1131.2813" style="stroke:#181818;stroke-width:1.0;"/><line style="stroke:#181818;stroke-width:1.0;stroke-dasharray:2.0,2.0;" x1="37.5" x2="499" y1="1131.2813" y2="1131.2813"/><text fill="#000000" font-family="sans-serif" font-size="13" lengthAdjust="spacing" textLength="123" x="44.5" y="1126.4248">Clicks popup to enter</text><polygon fill="#181818" points="598,1157.6328,608,1161.6328,598,1165.6328,602,1161.6328" style="stroke:#181818;stroke-width:1.0;"/><line style="stroke:#181818;stroke-width:1.0;" x1="505" x2="604" y1="1161.6328" y2="1161.6328"/><text fill="#000000" font-family="sans-serif" font-size="13" lengthAdjust="spacing" textLength="81" x="512" y="1156.7764">/neighborhood</text><polygon fill="#181818" points="264.5,1187.9844,254.5,1191.9844,264.5,1195.9844,260.5,1191.9844" style="stroke:#181818;stroke-width:1.0;"/><line style="stroke:#181818;stroke-width:1.0;" x1="258.5" x2="609" y1="1191.9844" y2="1191.9844"/><text fill="#000000" font-family="sans-serif" font-size="13" lengthAdjust="spacing" textLength="108" x="270.5" y="1187.1279">Get current station</text><polygon fill="#181818" points="598,1218.3359,608,1222.3359,598,1226.3359,602,1222.3359" style="stroke:#181818;stroke-width:1.0;"/><line style="stroke:#181818;stroke-width:1.0;" x1="253.5" x2="604" y1="1222.3359" y2="1222.3359"/><text fill="#000000" font-family="sans-serif" font-size="13" lengthAdjust="spacing" textLength="101" x="260.5" y="1217.4795">Current station ID</text><polygon fill="#181818" points="939.5,1248.6875,949.5,1252.6875,939.5,1256.6875,943.5,1252.6875" style="stroke:#181818;stroke-width:1.0;"/><line style="stroke:#181818;stroke-width:1.0;" x1="610" x2="945.5" y1="1252.6875" y2="1252.6875"/><text fill="#000000" font-family="sans-serif" font-size="13" lengthAdjust="spacing" textLength="149" x="617" y="1247.8311">Get graduate program IDs</text><polygon fill="#181818" points="621,1279.0391,611,1283.0391,621,1287.0391,617,1283.0391" style="stroke:#181818;stroke-width:1.0;"/><line style="stroke:#181818;stroke-width:1.0;" x1="615" x2="950.5" y1="1283.0391" y2="1283.0391"/><text fill="#000000" font-family="sans-serif" font-size="13" lengthAdjust="spacing" textLength="139" x="627" y="1278.1826">[Graduate program ID].n</text><line style="stroke:#181818;stroke-width:1.0;" x1="610" x2="652" y1="1329.7422" y2="1329.7422"/><line style="stroke:#181818;stroke-width:1.0;" x1="652" x2="652" y1="1329.7422" y2="1342.7422"/><line style="stroke:#181818;stroke-width:1.0;" x1="611" x2="652" y1="1342.7422" y2="1342.7422"/><polygon fill="#181818" points="621,1338.7422,611,1342.7422,621,1346.7422,617,1342.7422" style="stroke:#181818;stroke-width:1.0;"/><text fill="#000000" font-family="sans-serif" font-size="13" lengthAdjust="spacing" textLength="41" x="617" y="1308.5342">Render</text><text fill="#000000" font-family="sans-serif" font-size="13" lengthAdjust="spacing" textLength="77" x="617" y="1324.8857">neighborhood</text><polygon fill="#181818" points="598,1369.0938,608,1373.0938,598,1377.0938,602,1373.0938" style="stroke:#181818;stroke-width:1.0;"/><line style="stroke:#181818;stroke-width:1.0;stroke-dasharray:2.0,2.0;" x1="37.5" x2="604" y1="1373.0938" y2="1373.0938"/><text fill="#000000" font-family="sans-serif" font-size="13" lengthAdjust="spacing" textLength="84" x="44.5" y="1368.2373">Clicks building</text><polygon fill="#181818" points="696,1399.4453,706,1403.4453,696,1407.4453,700,1403.4453" style="stroke:#181818;stroke-width:1.0;"/><line style="stroke:#181818;stroke-width:1.0;" x1="610" x2="702" y1="1403.4453" y2="1403.4453"/><text fill="#000000" font-family="sans-serif" font-size="13" lengthAdjust="spacing" textLength="29" x="617" y="1398.5889">/form</text><polygon fill="#181818" points="877,1446.1484,887,1450.1484,877,1454.1484,881,1450.1484" style="stroke:#181818;stroke-width:1.0;"/><line style="stroke:#181818;stroke-width:1.0;" x1="708" x2="883" y1="1450.1484" y2="1450.1484"/><text fill="#000000" font-family="sans-serif" font-size="13" lengthAdjust="spacing" textLength="155" x="715" y="1428.9404">GET api/graduateprograms</text><text fill="#000000" font-family="sans-serif" font-size="13" lengthAdjust="spacing" textLength="157" x="715" y="1445.292">/{id}/multiplechoiceanswers</text><polygon fill="#181818" points="719,1476.5,709,1480.5,719,1484.5,715,1480.5" style="stroke:#181818;stroke-width:1.0;"/><line style="stroke:#181818;stroke-width:1.0;" x1="713" x2="888" y1="1480.5" y2="1480.5"/><text fill="#000000" font-family="sans-serif" font-size="13" lengthAdjust="spacing" textLength="119" x="725" y="1475.6436">[Graduateprogram].1</text><polygon fill="#181818" points="264.5,1506.8516,254.5,1510.8516,264.5,1514.8516,260.5,1510.8516" style="stroke:#181818;stroke-width:1.0;"/><line style="stroke:#181818;stroke-width:1.0;" x1="258.5" x2="707" y1="1510.8516" y2="1510.8516"/><text fill="#000000" font-family="sans-serif" font-size="13" lengthAdjust="spacing" textLength="75" x="270.5" y="1505.9951">Get UserKey</text><polygon fill="#181818" points="696,1537.2031,706,1541.2031,696,1545.2031,700,1541.2031" style="stroke:#181818;stroke-width:1.0;"/><line style="stroke:#181818;stroke-width:1.0;" x1="253.5" x2="702" y1="1541.2031" y2="1541.2031"/><text fill="#000000" font-family="sans-serif" font-size="13" lengthAdjust="spacing" textLength="48" x="260.5" y="1536.3467">Userkey</text><path d="M10,1556.2031 L83,1556.2031 L83,1564.5547 L73,1574.5547 L10,1574.5547 L10,1556.2031 " fill="#EEEEEE" style="stroke:#000000;stroke-width:1.5;"/><rect fill="none" height="169.1094" style="stroke:#000000;stroke-width:1.5;" width="907" x="10" y="1556.2031"/><text fill="#000000" font-family="sans-serif" font-size="13" font-weight="bold" lengthAdjust="spacing" textLength="28" x="25" y="1570.6982">loop</text><text fill="#000000" font-family="sans-serif" font-size="11" font-weight="bold" lengthAdjust="spacing" textLength="79" x="98" y="1569.6221">[10 questions]</text><line style="stroke:#181818;stroke-width:1.0;" x1="708" x2="750" y1="1613.2578" y2="1613.2578"/><line style="stroke:#181818;stroke-width:1.0;" x1="750" x2="750" y1="1613.2578" y2="1626.2578"/><line style="stroke:#181818;stroke-width:1.0;" x1="709" x2="750" y1="1626.2578" y2="1626.2578"/><polygon fill="#181818" points="719,1622.2578,709,1626.2578,719,1630.2578,715,1626.2578" style="stroke:#181818;stroke-width:1.0;"/><text fill="#000000" font-family="sans-serif" font-size="13" lengthAdjust="spacing" textLength="70" x="715" y="1592.0498">Render next</text><text fill="#000000" font-family="sans-serif" font-size="13" lengthAdjust="spacing" textLength="49" x="715" y="1608.4014">question</text><polygon fill="#181818" points="696,1652.6094,706,1656.6094,696,1660.6094,700,1656.6094" style="stroke:#181818;stroke-width:1.0;"/><line style="stroke:#181818;stroke-width:1.0;stroke-dasharray:2.0,2.0;" x1="37.5" x2="702" y1="1656.6094" y2="1656.6094"/><text fill="#000000" font-family="sans-serif" font-size="13" lengthAdjust="spacing" textLength="96" x="44.5" y="1651.7529">Answer question</text><polygon fill="#181818" points="264.5,1682.9609,254.5,1686.9609,264.5,1690.9609,260.5,1686.9609" style="stroke:#181818;stroke-width:1.0;"/><line style="stroke:#181818;stroke-width:1.0;" x1="258.5" x2="707" y1="1686.9609" y2="1686.9609"/><text fill="#000000" font-family="sans-serif" font-size="13" lengthAdjust="spacing" textLength="222" x="270.5" y="1682.1045">Update results object with new answer</text><polygon fill="#181818" points="877,1713.3125,887,1717.3125,877,1721.3125,881,1717.3125" style="stroke:#181818;stroke-width:1.0;"/><line style="stroke:#181818;stroke-width:1.0;" x1="708" x2="883" y1="1717.3125" y2="1717.3125"/><text fill="#000000" font-family="sans-serif" font-size="13" lengthAdjust="spacing" textLength="108" x="715" y="1712.4561">POST api/answers</text><polygon fill="#181818" points="780,1750.6641,790,1754.6641,780,1758.6641,784,1754.6641" style="stroke:#181818;stroke-width:1.0;"/><line style="stroke:#181818;stroke-width:1.0;" x1="708" x2="786" y1="1754.6641" y2="1754.6641"/><text fill="#000000" font-family="sans-serif" font-size="13" lengthAdjust="spacing" textLength="58" x="715" y="1749.8076">/summary</text><polygon fill="#181818" points="264.5,1781.0156,254.5,1785.0156,264.5,1789.0156,260.5,1785.0156" style="stroke:#181818;stroke-width:1.0;"/><line style="stroke:#181818;stroke-width:1.0;" x1="258.5" x2="791" y1="1785.0156" y2="1785.0156"/><text fill="#000000" font-family="sans-serif" font-size="13" lengthAdjust="spacing" textLength="166" x="270.5" y="1780.1592">Get answers for escaperoom</text><polygon fill="#181818" points="780,1811.3672,790,1815.3672,780,1819.3672,784,1815.3672" style="stroke:#181818;stroke-width:1.0;"/><line style="stroke:#181818;stroke-width:1.0;" x1="253.5" x2="786" y1="1815.3672" y2="1815.3672"/><text fill="#000000" font-family="sans-serif" font-size="13" lengthAdjust="spacing" textLength="50" x="260.5" y="1810.5107">Answers</text><line style="stroke:#181818;stroke-width:1.0;" x1="792" x2="834" y1="1862.0703" y2="1862.0703"/><line style="stroke:#181818;stroke-width:1.0;" x1="834" x2="834" y1="1862.0703" y2="1875.0703"/><line style="stroke:#181818;stroke-width:1.0;" x1="793" x2="834" y1="1875.0703" y2="1875.0703"/><polygon fill="#181818" points="803,1871.0703,793,1875.0703,803,1879.0703,799,1875.0703" style="stroke:#181818;stroke-width:1.0;"/><text fill="#000000" font-family="sans-serif" font-size="13" lengthAdjust="spacing" textLength="54" x="799" y="1840.8623">Calculate</text><text fill="#000000" font-family="sans-serif" font-size="13" lengthAdjust="spacing" textLength="32" x="799" y="1857.2139">result</text><line style="stroke:#181818;stroke-width:1.0;" x1="792" x2="834" y1="1921.7734" y2="1921.7734"/><line style="stroke:#181818;stroke-width:1.0;" x1="834" x2="834" y1="1921.7734" y2="1934.7734"/><line style="stroke:#181818;stroke-width:1.0;" x1="793" x2="834" y1="1934.7734" y2="1934.7734"/><polygon fill="#181818" points="803,1930.7734,793,1934.7734,803,1938.7734,799,1934.7734" style="stroke:#181818;stroke-width:1.0;"/><text fill="#000000" font-family="sans-serif" font-size="13" lengthAdjust="spacing" textLength="59" x="799" y="1900.5654">What if no</text><text fill="#000000" font-family="sans-serif" font-size="13" lengthAdjust="spacing" textLength="56" x="799" y="1916.917">escaped?</text><polygon fill="#181818" points="264.5,1961.125,254.5,1965.125,264.5,1969.125,260.5,1965.125" style="stroke:#181818;stroke-width:1.0;"/><line style="stroke:#181818;stroke-width:1.0;" x1="258.5" x2="791" y1="1965.125" y2="1965.125"/><text fill="#000000" font-family="sans-serif" font-size="13" lengthAdjust="spacing" textLength="121" x="270.5" y="1960.2686">Update Result object</text><polygon fill="#181818" points="780,1991.4766,790,1995.4766,780,1999.4766,784,1995.4766" style="stroke:#181818;stroke-width:1.0;"/><line style="stroke:#181818;stroke-width:1.0;stroke-dasharray:2.0,2.0;" x1="37.5" x2="786" y1="1995.4766" y2="1995.4766"/><text fill="#000000" font-family="sans-serif" font-size="13" lengthAdjust="spacing" textLength="157" x="44.5" y="1990.6201">Clicks back to neigborhood</text><polygon fill="#181818" points="621,2021.8281,611,2025.8281,621,2029.8281,617,2025.8281" style="stroke:#181818;stroke-width:1.0;"/><line style="stroke:#181818;stroke-width:1.0;" x1="615" x2="791" y1="2025.8281" y2="2025.8281"/><text fill="#000000" font-family="sans-serif" font-size="13" lengthAdjust="spacing" textLength="145" x="627" y="2020.9717">Go back to neighborhood</text><polygon fill="#181818" points="598,2052.1797,608,2056.1797,598,2060.1797,602,2056.1797" style="stroke:#181818;stroke-width:1.0;"/><line style="stroke:#181818;stroke-width:1.0;stroke-dasharray:2.0,2.0;" x1="37.5" x2="604" y1="2056.1797" y2="2056.1797"/><text fill="#000000" font-family="sans-serif" font-size="13" lengthAdjust="spacing" textLength="149" x="44.5" y="2051.3232">Clicks back to metro map</text><polygon fill="#181818" points="330,2082.5313,320,2086.5313,330,2090.5313,326,2086.5313" style="stroke:#181818;stroke-width:1.0;"/><line style="stroke:#181818;stroke-width:1.0;" x1="324" x2="609" y1="2086.5313" y2="2086.5313"/><text fill="#000000" font-family="sans-serif" font-size="13" lengthAdjust="spacing" textLength="130" x="336" y="2081.6748">Go back to metro map</text><!--MD5=[bcce8c594adbf8986b8e82de76948fd0]
@startuml
actor u as "User"
participant l as "Login" #99FF99
database ls as "Local\nStorage"
participant mg as "Metro\nGlobal" #99FF99
participant mm as "Metro\nMap" #99FF99
participant ml as "Metro\nLine" #99FF99
participant nbh as "Neighborhood" #99FF99
participant f as "From\nTemplate" #99FF99
participant s as "Summary" #99FF99
database api as "API"
database mms as "MetroMap\nService"
u - -> l : Enter name
l -> ls : Store userName
l -> ls : Store UserKey
l -> ls : Results object
l -> ls : Current station ID
l -> mg : /stations
mg -> mm : Load MetroMap\ncomponent
mm -> api : GET api/faculties/graduateprograms
api -> mm : [Faculties].n
mm -> mms : Call MetroMapService(faculties)
mms -> mm : Provide metrostation coordinates
mm -> mm : Render\nmetromap
mg -> ml : Load MetroLine\ncomponent
ml -> api : GET api/faculties/{id}/graduateprograms
api -> ml : [Faculties].1
ml -> ml : Render\nMetroLine
mg -> ls : Store\nstart\nstation
mg -> mm : Highlight\ncurrent\nstation
mg -> ml : Highlight\ncurrent\nstation
u - -> ml : Clicks on station in MetroLine component
ml -> ls : Update current\nstation
ml -> mg : Update current\nstation
mg -> mm : Update current\nstation
ml -> ml : Show popup\nto enter\nneighborhood
u - -> ml : Clicks popup to enter
ml -> nbh : /neighborhood
nbh -> ls : Get current station
ls -> nbh : Current station ID
nbh -> mms : Get graduate program IDs
mms -> nbh : [Graduate program ID].n
nbh -> nbh : Render\nneighborhood
u - -> nbh : Clicks building
nbh -> f : /form
f -> api : GET api/graduateprograms\n/{id}/multiplechoiceanswers
api -> f : [Graduateprogram].1
f -> ls : Get UserKey
ls -> f : Userkey
loop 10 questions
    f -> f : Render next\nquestion
    u - -> f : Answer question
    f -> ls : Update results object with new answer
    f -> api : POST api/answers
end
f -> s : /summary
s -> ls : Get answers for escaperoom
ls -> s : Answers
s -> s : Calculate\nresult
s -> s : What if no\nescaped?
s -> ls : Update Result object
u - -> s : Clicks back to neigborhood
s -> nbh : Go back to neighborhood
u - -> nbh : Clicks back to metro map
nbh -> mg : Go back to metro map
@enduml

PlantUML version 1.2022.7(Mon Aug 22 19:01:30 CEST 2022)
(GPL source distribution)
Java Runtime: Java(TM) SE Runtime Environment
JVM: Java HotSpot(TM) 64-Bit Server VM
Default Encoding: Cp1252
Language: en
Country: GB
--></g></svg>