<?xml version="1.0" encoding="UTF-8" standalone="no"?>
<!DOCTYPE svg PUBLIC "-//W3C//DTD SVG 1.1//EN"
 "http://www.w3.org/Graphics/SVG/1.1/DTD/svg11.dtd">
<!-- Generated by graphviz version 5.0.0 (20220707.1540)
 -->
<!-- Title: dependencies Pages: 1 -->
<svg width="798pt" height="174pt"
 viewBox="0.00 0.00 798.00 173.80" xmlns="http://www.w3.org/2000/svg" xmlns:xlink="http://www.w3.org/1999/xlink">
<g id="graph0" class="graph" transform="scale(1 1) rotate(0) translate(4 169.8)">
<title>dependencies</title>
<polygon fill="white" stroke="transparent" points="-4,4 -4,-169.8 794,-169.8 794,4 -4,4"/>
<text text-anchor="middle" x="395" y="-8.2" font-family="sans-serif" font-size="14.00">dependencies</text>
<g id="clust1" class="cluster">
<title>cluster_RailMapModule</title>
<polygon fill="none" stroke="black" stroke-dasharray="1,5" points="8,-32.8 8,-157.8 782,-157.8 782,-32.8 8,-32.8"/>
</g>
<g id="clust2" class="cluster">
<title>cluster_RailMapModule_declarations</title>
<polygon fill="none" stroke="black" points="16,-40.8 16,-92.8 774,-92.8 774,-40.8 16,-40.8"/>
</g>
<!-- MetrolineComponent -->
<g id="node1" class="node">
<title>MetrolineComponent</title>
<polygon fill="#ffffb3" stroke="black" points="766.04,-84.8 629.96,-84.8 629.96,-48.8 766.04,-48.8 766.04,-84.8"/>
<text text-anchor="middle" x="698" y="-62.6" font-family="Times,serif" font-size="14.00">MetrolineComponent</text>
</g>
<!-- RailMapModule -->
<g id="node6" class="node">
<title>RailMapModule</title>
<polygon fill="#8dd3c7" stroke="black" points="420.05,-149.8 417.05,-153.8 396.05,-153.8 393.05,-149.8 311.95,-149.8 311.95,-113.8 420.05,-113.8 420.05,-149.8"/>
<text text-anchor="middle" x="366" y="-127.6" font-family="Times,serif" font-size="14.00">RailMapModule</text>
</g>
<!-- MetrolineComponent&#45;&gt;RailMapModule -->
<g id="edge1" class="edge">
<title>MetrolineComponent&#45;&gt;RailMapModule</title>
<path fill="none" stroke="black" d="M698,-85.08C698,-106.12 698,-137.8 698,-137.8 698,-137.8 430.08,-137.8 430.08,-137.8"/>
<polygon fill="black" stroke="black" points="430.08,-134.3 420.08,-137.8 430.08,-141.3 430.08,-134.3"/>
</g>
<!-- NeighbourhoodComponent -->
<g id="node2" class="node">
<title>NeighbourhoodComponent</title>
<polygon fill="#ffffb3" stroke="black" points="611.71,-84.8 442.29,-84.8 442.29,-48.8 611.71,-48.8 611.71,-84.8"/>
<text text-anchor="middle" x="527" y="-62.6" font-family="Times,serif" font-size="14.00">NeighbourhoodComponent</text>
</g>
<!-- NeighbourhoodComponent&#45;&gt;RailMapModule -->
<g id="edge2" class="edge">
<title>NeighbourhoodComponent&#45;&gt;RailMapModule</title>
<path fill="none" stroke="black" d="M527,-84.82C527,-102.17 527,-125.8 527,-125.8 527,-125.8 430.06,-125.8 430.06,-125.8"/>
<polygon fill="black" stroke="black" points="430.06,-122.3 420.06,-125.8 430.06,-129.3 430.06,-122.3"/>
</g>
<!-- PointsComponent -->
<g id="node3" class="node">
<title>PointsComponent</title>
<polygon fill="#ffffb3" stroke="black" points="424.35,-84.8 307.65,-84.8 307.65,-48.8 424.35,-48.8 424.35,-84.8"/>
<text text-anchor="middle" x="366" y="-62.6" font-family="Times,serif" font-size="14.00">PointsComponent</text>
</g>
<!-- PointsComponent&#45;&gt;RailMapModule -->
<g id="edge3" class="edge">
<title>PointsComponent&#45;&gt;RailMapModule</title>
<path fill="none" stroke="black" d="M366,-84.91C366,-84.91 366,-103.79 366,-103.79"/>
<polygon fill="black" stroke="black" points="362.5,-103.79 366,-113.79 369.5,-103.79 362.5,-103.79"/>
</g>
<!-- StationComponent -->
<g id="node4" class="node">
<title>StationComponent</title>
<polygon fill="#ffffb3" stroke="black" points="289.5,-84.8 168.5,-84.8 168.5,-48.8 289.5,-48.8 289.5,-84.8"/>
<text text-anchor="middle" x="229" y="-62.6" font-family="Times,serif" font-size="14.00">StationComponent</text>
</g>
<!-- StationComponent&#45;&gt;RailMapModule -->
<g id="edge4" class="edge">
<title>StationComponent&#45;&gt;RailMapModule</title>
<path fill="none" stroke="black" d="M229,-84.82C229,-102.17 229,-125.8 229,-125.8 229,-125.8 301.85,-125.8 301.85,-125.8"/>
<polygon fill="black" stroke="black" points="301.85,-129.3 311.85,-125.8 301.85,-122.3 301.85,-129.3"/>
</g>
<!-- StationsComponent -->
<g id="node5" class="node">
<title>StationsComponent</title>
<polygon fill="#ffffb3" stroke="black" points="150.45,-84.8 23.55,-84.8 23.55,-48.8 150.45,-48.8 150.45,-84.8"/>
<text text-anchor="middle" x="87" y="-62.6" font-family="Times,serif" font-size="14.00">StationsComponent</text>
</g>
<!-- StationsComponent&#45;&gt;RailMapModule -->
<g id="edge5" class="edge">
<title>StationsComponent&#45;&gt;RailMapModule</title>
<path fill="none" stroke="black" d="M87,-85.08C87,-106.12 87,-137.8 87,-137.8 87,-137.8 301.88,-137.8 301.88,-137.8"/>
<polygon fill="black" stroke="black" points="301.88,-141.3 311.88,-137.8 301.88,-134.3 301.88,-141.3"/>
</g>
</g>
</svg>
