<?xml version="1.0" encoding="UTF-8" standalone="no"?>
<!DOCTYPE svg PUBLIC "-//W3C//DTD SVG 1.1//EN"
 "http://www.w3.org/Graphics/SVG/1.1/DTD/svg11.dtd">
<!-- Generated by graphviz version 5.0.0 (20220707.1540)
 -->
<!-- Title: dependencies Pages: 1 -->
<svg width="869pt" height="247pt"
 viewBox="0.00 0.00 869.00 246.80" xmlns="http://www.w3.org/2000/svg" xmlns:xlink="http://www.w3.org/1999/xlink">
<g id="graph0" class="graph" transform="scale(1 1) rotate(0) translate(4 242.8)">
<title>dependencies</title>
<polygon fill="white" stroke="transparent" points="-4,4 -4,-242.8 865,-242.8 865,4 -4,4"/>
<text text-anchor="middle" x="430.5" y="-8.2" font-family="sans-serif" font-size="14.00">dependencies</text>
<g id="clust1" class="cluster">
<title>cluster_AppModule</title>
<polygon fill="none" stroke="black" stroke-dasharray="1,5" points="8,-32.8 8,-230.8 853,-230.8 853,-32.8 8,-32.8"/>
</g>
<g id="clust2" class="cluster">
<title>cluster_AppModule_declarations</title>
<polygon fill="none" stroke="black" points="541,-40.8 541,-92.8 845,-92.8 845,-40.8 541,-40.8"/>
</g>
<g id="clust6" class="cluster">
<title>cluster_AppModule_exports</title>
<polygon fill="none" stroke="black" points="271,-170.8 271,-222.8 385,-222.8 385,-170.8 271,-170.8"/>
</g>
<g id="clust7" class="cluster">
<title>cluster_AppModule_bootstrap</title>
<polygon fill="none" stroke="black" points="393,-170.8 393,-222.8 517,-222.8 517,-170.8 393,-170.8"/>
</g>
<g id="clust5" class="cluster">
<title>cluster_AppModule_imports</title>
<polygon fill="none" stroke="black" points="16,-40.8 16,-92.8 533,-92.8 533,-40.8 16,-40.8"/>
</g>
<!-- AppComponent -->
<g id="node1" class="node">
<title>AppComponent</title>
<polygon fill="#ffffb3" stroke="black" points="836.94,-84.8 731.06,-84.8 731.06,-48.8 836.94,-48.8 836.94,-84.8"/>
<text text-anchor="middle" x="784" y="-62.6" font-family="Times,serif" font-size="14.00">AppComponent</text>
</g>
<!-- AppModule -->
<g id="node3" class="node">
<title>AppModule</title>
<polygon fill="#8dd3c7" stroke="black" points="432.66,-149.8 429.66,-153.8 408.66,-153.8 405.66,-149.8 349.34,-149.8 349.34,-113.8 432.66,-113.8 432.66,-149.8"/>
<text text-anchor="middle" x="391" y="-127.6" font-family="Times,serif" font-size="14.00">AppModule</text>
</g>
<!-- AppComponent&#45;&gt;AppModule -->
<g id="edge1" class="edge">
<title>AppComponent&#45;&gt;AppModule</title>
<path fill="none" stroke="black" d="M784,-85.08C784,-106.12 784,-137.8 784,-137.8 784,-137.8 442.69,-137.8 442.69,-137.8"/>
<polygon fill="black" stroke="black" points="442.69,-134.3 432.69,-137.8 442.69,-141.3 442.69,-134.3"/>
</g>
<!-- FormTemplateComponent -->
<g id="node2" class="node">
<title>FormTemplateComponent</title>
<polygon fill="#ffffb3" stroke="black" points="713.03,-84.8 548.97,-84.8 548.97,-48.8 713.03,-48.8 713.03,-84.8"/>
<text text-anchor="middle" x="631" y="-62.6" font-family="Times,serif" font-size="14.00">FormTemplateComponent</text>
</g>
<!-- FormTemplateComponent&#45;&gt;AppModule -->
<g id="edge2" class="edge">
<title>FormTemplateComponent&#45;&gt;AppModule</title>
<path fill="none" stroke="black" d="M631,-84.82C631,-102.17 631,-125.8 631,-125.8 631,-125.8 442.8,-125.8 442.8,-125.8"/>
<polygon fill="black" stroke="black" points="442.8,-122.3 432.8,-125.8 442.8,-129.3 442.8,-122.3"/>
</g>
<!-- PointsModule  -->
<g id="node8" class="node">
<title>PointsModule </title>
<polygon fill="#fb8072" stroke="black" points="377.07,-214.8 278.93,-214.8 278.93,-178.8 377.07,-178.8 377.07,-214.8"/>
<text text-anchor="middle" x="328" y="-192.6" font-family="Times,serif" font-size="14.00">PointsModule </text>
</g>
<!-- AppModule&#45;&gt;PointsModule  -->
<g id="edge7" class="edge">
<title>AppModule&#45;&gt;PointsModule </title>
<path fill="none" stroke="black" stroke-dasharray="5,2" d="M363.1,-149.91C363.1,-149.91 363.1,-168.79 363.1,-168.79"/>
<polygon fill="black" stroke="black" points="359.6,-168.79 363.1,-178.79 366.6,-168.79 359.6,-168.79"/>
</g>
<!-- AppComponent  -->
<g id="node9" class="node">
<title>AppComponent </title>
<polygon fill="#80b1d3" stroke="black" points="509.44,-214.8 400.56,-214.8 400.56,-178.8 509.44,-178.8 509.44,-214.8"/>
<text text-anchor="middle" x="455" y="-192.6" font-family="Times,serif" font-size="14.00">AppComponent </text>
</g>
<!-- AppModule&#45;&gt;AppComponent  -->
<g id="edge8" class="edge">
<title>AppModule&#45;&gt;AppComponent </title>
<path fill="none" stroke="black" stroke-dasharray="1,5" d="M416.68,-149.91C416.68,-149.91 416.68,-168.79 416.68,-168.79"/>
<polygon fill="black" stroke="black" points="413.18,-168.79 416.68,-178.79 420.18,-168.79 413.18,-168.79"/>
</g>
<!-- AppRoutingModule -->
<g id="node4" class="node">
<title>AppRoutingModule</title>
<polygon fill="#8dd3c7" stroke="black" points="525.28,-84.8 522.28,-88.8 501.28,-88.8 498.28,-84.8 396.72,-84.8 396.72,-48.8 525.28,-48.8 525.28,-84.8"/>
<text text-anchor="middle" x="461" y="-62.6" font-family="Times,serif" font-size="14.00">AppRoutingModule</text>
</g>
<!-- AppRoutingModule&#45;&gt;AppModule -->
<g id="edge3" class="edge">
<title>AppRoutingModule&#45;&gt;AppModule</title>
<path fill="none" stroke="black" d="M414.72,-84.91C414.72,-84.91 414.72,-103.79 414.72,-103.79"/>
<polygon fill="black" stroke="black" points="411.22,-103.79 414.72,-113.79 418.22,-103.79 411.22,-103.79"/>
</g>
<!-- MetrolineModule -->
<g id="node5" class="node">
<title>MetrolineModule</title>
<polygon fill="#8dd3c7" stroke="black" points="378.26,-84.8 375.26,-88.8 354.26,-88.8 351.26,-84.8 263.74,-84.8 263.74,-48.8 378.26,-48.8 378.26,-84.8"/>
<text text-anchor="middle" x="321" y="-62.6" font-family="Times,serif" font-size="14.00">MetrolineModule</text>
</g>
<!-- MetrolineModule&#45;&gt;AppModule -->
<g id="edge4" class="edge">
<title>MetrolineModule&#45;&gt;AppModule</title>
<path fill="none" stroke="black" d="M363.77,-84.91C363.77,-84.91 363.77,-103.79 363.77,-103.79"/>
<polygon fill="black" stroke="black" points="360.27,-103.79 363.77,-113.79 367.27,-103.79 360.27,-103.79"/>
</g>
<!-- PointsModule -->
<g id="node6" class="node">
<title>PointsModule</title>
<polygon fill="#8dd3c7" stroke="black" points="245.07,-84.8 242.07,-88.8 221.07,-88.8 218.07,-84.8 150.93,-84.8 150.93,-48.8 245.07,-48.8 245.07,-84.8"/>
<text text-anchor="middle" x="198" y="-62.6" font-family="Times,serif" font-size="14.00">PointsModule</text>
</g>
<!-- PointsModule&#45;&gt;AppModule -->
<g id="edge5" class="edge">
<title>PointsModule&#45;&gt;AppModule</title>
<path fill="none" stroke="black" d="M198,-84.82C198,-102.17 198,-125.8 198,-125.8 198,-125.8 339.12,-125.8 339.12,-125.8"/>
<polygon fill="black" stroke="black" points="339.12,-129.3 349.12,-125.8 339.12,-122.3 339.12,-129.3"/>
</g>
<!-- RailMapModule -->
<g id="node7" class="node">
<title>RailMapModule</title>
<polygon fill="#8dd3c7" stroke="black" points="132.05,-84.8 129.05,-88.8 108.05,-88.8 105.05,-84.8 23.95,-84.8 23.95,-48.8 132.05,-48.8 132.05,-84.8"/>
<text text-anchor="middle" x="78" y="-62.6" font-family="Times,serif" font-size="14.00">RailMapModule</text>
</g>
<!-- RailMapModule&#45;&gt;AppModule -->
<g id="edge6" class="edge">
<title>RailMapModule&#45;&gt;AppModule</title>
<path fill="none" stroke="black" d="M78,-85.08C78,-106.12 78,-137.8 78,-137.8 78,-137.8 339.11,-137.8 339.11,-137.8"/>
<polygon fill="black" stroke="black" points="339.11,-141.3 349.11,-137.8 339.11,-134.3 339.11,-141.3"/>
</g>
</g>
</svg>
