<?xml version="1.0" encoding="UTF-8" standalone="no"?>
<!DOCTYPE svg PUBLIC "-//W3C//DTD SVG 1.1//EN"
 "http://www.w3.org/Graphics/SVG/1.1/DTD/svg11.dtd">
<!-- Generated by graphviz version 5.0.0 (20220707.1540)
 -->
<!-- Title: dependencies Pages: 1 -->
<svg width="1148pt" height="323pt"
 viewBox="0.00 0.00 1148.00 322.80" xmlns="http://www.w3.org/2000/svg" xmlns:xlink="http://www.w3.org/1999/xlink">
<g id="graph0" class="graph" transform="scale(1 1) rotate(0) translate(4 318.8)">
<title>dependencies</title>
<polygon fill="white" stroke="transparent" points="-4,4 -4,-318.8 1144,-318.8 1144,4 -4,4"/>
<text text-anchor="middle" x="570" y="-8.2" font-family="sans-serif" font-size="14.00">dependencies</text>
<g id="clust1" class="cluster">
<title>cluster_AppModule</title>
<polygon fill="none" stroke="black" stroke-dasharray="1,5" points="121,-108.8 121,-306.8 966,-306.8 966,-108.8 121,-108.8"/>
</g>
<g id="clust2" class="cluster">
<title>cluster_AppModule_declarations</title>
<polygon fill="none" stroke="black" points="654,-116.8 654,-168.8 958,-168.8 958,-116.8 654,-116.8"/>
</g>
<g id="clust5" class="cluster">
<title>cluster_AppModule_imports</title>
<polygon fill="none" stroke="black" points="129,-116.8 129,-168.8 646,-168.8 646,-116.8 129,-116.8"/>
</g>
<g id="clust6" class="cluster">
<title>cluster_AppModule_exports</title>
<polygon fill="none" stroke="black" points="385,-246.8 385,-298.8 499,-298.8 499,-246.8 385,-246.8"/>
</g>
<g id="clust7" class="cluster">
<title>cluster_AppModule_bootstrap</title>
<polygon fill="none" stroke="black" points="507,-246.8 507,-298.8 631,-298.8 631,-246.8 507,-246.8"/>
</g>
<g id="clust21" class="cluster">
<title>cluster_LoginModule</title>
<polygon fill="none" stroke="black" stroke-dasharray="1,5" points="986,-32.8 986,-168.8 1132,-168.8 1132,-32.8 986,-32.8"/>
</g>
<g id="clust22" class="cluster">
<title>cluster_LoginModule_declarations</title>
<polygon fill="none" stroke="black" points="994,-40.8 994,-92.8 1124,-92.8 1124,-40.8 994,-40.8"/>
</g>
<g id="clust28" class="cluster">
<title>cluster_MetrolineModule</title>
<polygon fill="none" stroke="black" stroke-dasharray="1,5" points="8,-32.8 8,-100.8 196,-100.8 196,-32.8 8,-32.8"/>
</g>
<g id="clust33" class="cluster">
<title>cluster_MetrolineModule_providers</title>
<polygon fill="none" stroke="black" points="16,-40.8 16,-92.8 188,-92.8 188,-40.8 16,-40.8"/>
</g>
<g id="clust40" class="cluster">
<title>cluster_RailMapModule</title>
<polygon fill="none" stroke="black" stroke-dasharray="1,5" points="204,-32.8 204,-100.8 978,-100.8 978,-32.8 204,-32.8"/>
</g>
<g id="clust41" class="cluster">
<title>cluster_RailMapModule_declarations</title>
<polygon fill="none" stroke="black" points="212,-40.8 212,-92.8 970,-92.8 970,-40.8 212,-40.8"/>
</g>
<!-- AppComponent -->
<g id="node1" class="node">
<title>AppComponent</title>
<polygon fill="#ffffb3" stroke="black" points="949.94,-160.8 844.06,-160.8 844.06,-124.8 949.94,-124.8 949.94,-160.8"/>
<text text-anchor="middle" x="897" y="-138.6" font-family="Times,serif" font-size="14.00">AppComponent</text>
</g>
<!-- AppModule -->
<g id="node3" class="node">
<title>AppModule</title>
<polygon fill="#8dd3c7" stroke="black" points="546.66,-225.8 543.66,-229.8 522.66,-229.8 519.66,-225.8 463.34,-225.8 463.34,-189.8 546.66,-189.8 546.66,-225.8"/>
<text text-anchor="middle" x="505" y="-203.6" font-family="Times,serif" font-size="14.00">AppModule</text>
</g>
<!-- AppComponent&#45;&gt;AppModule -->
<g id="edge1" class="edge">
<title>AppComponent&#45;&gt;AppModule</title>
<path fill="none" stroke="black" d="M897,-161.08C897,-182.12 897,-213.8 897,-213.8 897,-213.8 556.95,-213.8 556.95,-213.8"/>
<polygon fill="black" stroke="black" points="556.95,-210.3 546.95,-213.8 556.95,-217.3 556.95,-210.3"/>
</g>
<!-- FormTemplateComponent -->
<g id="node2" class="node">
<title>FormTemplateComponent</title>
<polygon fill="#ffffb3" stroke="black" points="826.03,-160.8 661.97,-160.8 661.97,-124.8 826.03,-124.8 826.03,-160.8"/>
<text text-anchor="middle" x="744" y="-138.6" font-family="Times,serif" font-size="14.00">FormTemplateComponent</text>
</g>
<!-- FormTemplateComponent&#45;&gt;AppModule -->
<g id="edge2" class="edge">
<title>FormTemplateComponent&#45;&gt;AppModule</title>
<path fill="none" stroke="black" d="M744,-160.82C744,-178.17 744,-201.8 744,-201.8 744,-201.8 556.9,-201.8 556.9,-201.8"/>
<polygon fill="black" stroke="black" points="556.9,-198.3 546.9,-201.8 556.9,-205.3 556.9,-198.3"/>
</g>
<!-- PointsModule  -->
<g id="node8" class="node">
<title>PointsModule </title>
<polygon fill="#fb8072" stroke="black" points="491.07,-290.8 392.93,-290.8 392.93,-254.8 491.07,-254.8 491.07,-290.8"/>
<text text-anchor="middle" x="442" y="-268.6" font-family="Times,serif" font-size="14.00">PointsModule </text>
</g>
<!-- AppModule&#45;&gt;PointsModule  -->
<g id="edge7" class="edge">
<title>AppModule&#45;&gt;PointsModule </title>
<path fill="none" stroke="black" stroke-dasharray="5,2" d="M477.1,-225.91C477.1,-225.91 477.1,-244.79 477.1,-244.79"/>
<polygon fill="black" stroke="black" points="473.6,-244.79 477.1,-254.79 480.6,-244.79 473.6,-244.79"/>
</g>
<!-- AppComponent  -->
<g id="node9" class="node">
<title>AppComponent </title>
<polygon fill="#80b1d3" stroke="black" points="623.44,-290.8 514.56,-290.8 514.56,-254.8 623.44,-254.8 623.44,-290.8"/>
<text text-anchor="middle" x="569" y="-268.6" font-family="Times,serif" font-size="14.00">AppComponent </text>
</g>
<!-- AppModule&#45;&gt;AppComponent  -->
<g id="edge8" class="edge">
<title>AppModule&#45;&gt;AppComponent </title>
<path fill="none" stroke="black" stroke-dasharray="1,5" d="M530.68,-225.91C530.68,-225.91 530.68,-244.79 530.68,-244.79"/>
<polygon fill="black" stroke="black" points="527.18,-244.79 530.68,-254.79 534.18,-244.79 527.18,-244.79"/>
</g>
<!-- AppRoutingModule -->
<g id="node4" class="node">
<title>AppRoutingModule</title>
<polygon fill="#8dd3c7" stroke="black" points="638.28,-160.8 635.28,-164.8 614.28,-164.8 611.28,-160.8 509.72,-160.8 509.72,-124.8 638.28,-124.8 638.28,-160.8"/>
<text text-anchor="middle" x="574" y="-138.6" font-family="Times,serif" font-size="14.00">AppRoutingModule</text>
</g>
<!-- AppRoutingModule&#45;&gt;AppModule -->
<g id="edge3" class="edge">
<title>AppRoutingModule&#45;&gt;AppModule</title>
<path fill="none" stroke="black" d="M528.22,-160.91C528.22,-160.91 528.22,-179.79 528.22,-179.79"/>
<polygon fill="black" stroke="black" points="524.72,-179.79 528.22,-189.79 531.72,-179.79 524.72,-179.79"/>
</g>
<!-- MetrolineModule -->
<g id="node5" class="node">
<title>MetrolineModule</title>
<polygon fill="#8dd3c7" stroke="black" points="251.26,-160.8 248.26,-164.8 227.26,-164.8 224.26,-160.8 136.74,-160.8 136.74,-124.8 251.26,-124.8 251.26,-160.8"/>
<text text-anchor="middle" x="194" y="-138.6" font-family="Times,serif" font-size="14.00">MetrolineModule</text>
</g>
<!-- MetrolineModule&#45;&gt;AppModule -->
<g id="edge4" class="edge">
<title>MetrolineModule&#45;&gt;AppModule</title>
<path fill="none" stroke="black" d="M194,-161.08C194,-182.12 194,-213.8 194,-213.8 194,-213.8 453.06,-213.8 453.06,-213.8"/>
<polygon fill="black" stroke="black" points="453.06,-217.3 463.06,-213.8 453.06,-210.3 453.06,-217.3"/>
</g>
<!-- PointsModule -->
<g id="node6" class="node">
<title>PointsModule</title>
<polygon fill="#8dd3c7" stroke="black" points="364.07,-160.8 361.07,-164.8 340.07,-164.8 337.07,-160.8 269.93,-160.8 269.93,-124.8 364.07,-124.8 364.07,-160.8"/>
<text text-anchor="middle" x="317" y="-138.6" font-family="Times,serif" font-size="14.00">PointsModule</text>
</g>
<!-- PointsModule&#45;&gt;AppModule -->
<g id="edge5" class="edge">
<title>PointsModule&#45;&gt;AppModule</title>
<path fill="none" stroke="black" d="M317,-160.82C317,-178.17 317,-201.8 317,-201.8 317,-201.8 453.28,-201.8 453.28,-201.8"/>
<polygon fill="black" stroke="black" points="453.28,-205.3 463.28,-201.8 453.28,-198.3 453.28,-205.3"/>
</g>
<!-- RailMapModule -->
<g id="node7" class="node">
<title>RailMapModule</title>
<polygon fill="#8dd3c7" stroke="black" points="491.05,-160.8 488.05,-164.8 467.05,-164.8 464.05,-160.8 382.95,-160.8 382.95,-124.8 491.05,-124.8 491.05,-160.8"/>
<text text-anchor="middle" x="437" y="-138.6" font-family="Times,serif" font-size="14.00">RailMapModule</text>
</g>
<!-- RailMapModule&#45;&gt;AppModule -->
<g id="edge6" class="edge">
<title>RailMapModule&#45;&gt;AppModule</title>
<path fill="none" stroke="black" d="M477.22,-160.91C477.22,-160.91 477.22,-179.79 477.22,-179.79"/>
<polygon fill="black" stroke="black" points="473.72,-179.79 477.22,-189.79 480.72,-179.79 473.72,-179.79"/>
</g>
<!-- LoginComponent -->
<g id="node10" class="node">
<title>LoginComponent</title>
<polygon fill="#ffffb3" stroke="black" points="1116.27,-84.8 1001.73,-84.8 1001.73,-48.8 1116.27,-48.8 1116.27,-84.8"/>
<text text-anchor="middle" x="1059" y="-62.6" font-family="Times,serif" font-size="14.00">LoginComponent</text>
</g>
<!-- LoginModule -->
<g id="node11" class="node">
<title>LoginModule</title>
<polygon fill="#8dd3c7" stroke="black" points="1105.49,-160.8 1102.49,-164.8 1081.49,-164.8 1078.49,-160.8 1012.51,-160.8 1012.51,-124.8 1105.49,-124.8 1105.49,-160.8"/>
<text text-anchor="middle" x="1059" y="-138.6" font-family="Times,serif" font-size="14.00">LoginModule</text>
</g>
<!-- LoginComponent&#45;&gt;LoginModule -->
<g id="edge9" class="edge">
<title>LoginComponent&#45;&gt;LoginModule</title>
<path fill="none" stroke="black" d="M1059,-84.81C1059,-84.81 1059,-114.65 1059,-114.65"/>
<polygon fill="black" stroke="black" points="1055.5,-114.65 1059,-124.65 1062.5,-114.65 1055.5,-114.65"/>
</g>
<!-- MetrolineService -->
<g id="node12" class="node">
<title>MetrolineService</title>
<ellipse fill="#fdb462" stroke="black" cx="102" cy="-66.8" rx="78.15" ry="18"/>
<text text-anchor="middle" x="102" y="-62.6" font-family="Times,serif" font-size="14.00">MetrolineService</text>
</g>
<!-- MetrolineService&#45;&gt;MetrolineModule -->
<g id="edge10" class="edge">
<title>MetrolineService&#45;&gt;MetrolineModule</title>
<path fill="none" stroke="black" d="M158.35,-79.35C158.35,-79.35 158.35,-114.54 158.35,-114.54"/>
<polygon fill="black" stroke="black" points="154.85,-114.54 158.35,-124.54 161.85,-114.54 154.85,-114.54"/>
</g>
<!-- MetrolineComponent -->
<g id="node13" class="node">
<title>MetrolineComponent</title>
<polygon fill="#ffffb3" stroke="black" points="962.04,-84.8 825.96,-84.8 825.96,-48.8 962.04,-48.8 962.04,-84.8"/>
<text text-anchor="middle" x="894" y="-62.6" font-family="Times,serif" font-size="14.00">MetrolineComponent</text>
</g>
<!-- MetrolineComponent&#45;&gt;RailMapModule -->
<g id="edge11" class="edge">
<title>MetrolineComponent&#45;&gt;RailMapModule</title>
<path fill="none" stroke="black" d="M835.27,-84.91C835.27,-94.7 835.27,-104.8 835.27,-104.8 835.27,-104.8 464.95,-104.8 464.95,-104.8 464.95,-104.8 464.95,-114.69 464.95,-114.69"/>
<polygon fill="black" stroke="black" points="461.45,-114.69 464.95,-124.69 468.45,-114.69 461.45,-114.69"/>
</g>
<!-- NeighbourhoodComponent -->
<g id="node14" class="node">
<title>NeighbourhoodComponent</title>
<polygon fill="#ffffb3" stroke="black" points="807.71,-84.8 638.29,-84.8 638.29,-48.8 807.71,-48.8 807.71,-84.8"/>
<text text-anchor="middle" x="723" y="-62.6" font-family="Times,serif" font-size="14.00">NeighbourhoodComponent</text>
</g>
<!-- NeighbourhoodComponent&#45;&gt;RailMapModule -->
<g id="edge12" class="edge">
<title>NeighbourhoodComponent&#45;&gt;RailMapModule</title>
<path fill="none" stroke="black" d="M650.07,-85.01C650.07,-90.35 650.07,-94.8 650.07,-94.8 650.07,-94.8 444.39,-94.8 444.39,-94.8 444.39,-94.8 444.39,-114.65 444.39,-114.65"/>
<polygon fill="black" stroke="black" points="440.89,-114.65 444.39,-124.65 447.89,-114.65 440.89,-114.65"/>
</g>
<!-- PointsComponent -->
<g id="node15" class="node">
<title>PointsComponent</title>
<polygon fill="#ffffb3" stroke="black" points="620.35,-84.8 503.65,-84.8 503.65,-48.8 620.35,-48.8 620.35,-84.8"/>
<text text-anchor="middle" x="562" y="-62.6" font-family="Times,serif" font-size="14.00">PointsComponent</text>
</g>
<!-- PointsComponent&#45;&gt;RailMapModule -->
<g id="edge13" class="edge">
<title>PointsComponent&#45;&gt;RailMapModule</title>
<path fill="none" stroke="black" d="M503.5,-66.8C499.82,-66.8 497.55,-66.8 497.55,-66.8 497.55,-66.8 497.55,-142.8 497.55,-142.8 497.55,-142.8 496.9,-142.8 496.9,-142.8"/>
<polygon fill="black" stroke="black" points="501.07,-139.3 491.07,-142.8 501.07,-146.3 501.07,-139.3"/>
</g>
<!-- StationComponent -->
<g id="node16" class="node">
<title>StationComponent</title>
<polygon fill="#ffffb3" stroke="black" points="485.5,-84.8 364.5,-84.8 364.5,-48.8 485.5,-48.8 485.5,-84.8"/>
<text text-anchor="middle" x="425" y="-62.6" font-family="Times,serif" font-size="14.00">StationComponent</text>
</g>
<!-- StationComponent&#45;&gt;RailMapModule -->
<g id="edge14" class="edge">
<title>StationComponent&#45;&gt;RailMapModule</title>
<path fill="none" stroke="black" d="M423.84,-84.81C423.84,-84.81 423.84,-114.65 423.84,-114.65"/>
<polygon fill="black" stroke="black" points="420.34,-114.65 423.84,-124.65 427.34,-114.65 420.34,-114.65"/>
</g>
<!-- StationsComponent -->
<g id="node17" class="node">
<title>StationsComponent</title>
<polygon fill="#ffffb3" stroke="black" points="346.45,-84.8 219.55,-84.8 219.55,-48.8 346.45,-48.8 346.45,-84.8"/>
<text text-anchor="middle" x="283" y="-62.6" font-family="Times,serif" font-size="14.00">StationsComponent</text>
</g>
<!-- StationsComponent&#45;&gt;RailMapModule -->
<g id="edge15" class="edge">
<title>StationsComponent&#45;&gt;RailMapModule</title>
<path fill="none" stroke="black" d="M307.97,-84.95C307.97,-98.54 307.97,-114.8 307.97,-114.8 307.97,-114.8 403.28,-114.8 403.28,-114.8 403.28,-114.8 403.28,-115.78 403.28,-115.78"/>
<polygon fill="black" stroke="black" points="399.78,-114.59 403.28,-124.59 406.78,-114.59 399.78,-114.59"/>
</g>
</g>
</svg>
